<?xml version="1.0" encoding="UTF-8" standalone="no"?>
<!DOCTYPE svg PUBLIC "-//W3C//DTD SVG 1.1//EN" "http://www.w3.org/Graphics/SVG/1.1/DTD/svg11.dtd">
<svg width="100%" height="100%" viewBox="0 0 1000 1000" version="1.1" xmlns="http://www.w3.org/2000/svg" xmlnsXlink="http://www.w3.org/1999/xlink" xmlSpace="preserve" xmlnsSerif="http://www.serif.com/" style="fill-rule:evenodd;clip-rule:evenodd;stroke-linejoin:round;stroke-miterlimit:2;">
    <path d="M885,115L115,115C86,115 62.5,138.5 62.5,167.5L62.5,832.5C62.5,861.5 86,885 115,885L885,885C914,885 937.5,861.5 937.5,832.5L937.5,167.5C937.5,138.5 914,115 885,115ZM885,832.5L115,832.5L115,255L885,255L885,832.5Z" style="fill:rgb(114,117,126);"/>
    <path d="M470,669.6C475.2,669.6 479.1,668.4 481.8,666.1C484.5,663.8 486.5,660.5 487.9,656.4C489.2,652.3 490.8,646.6 492.5,639.4L545.5,421.3C548.1,411 549.5,403.8 549.5,399.9C549.5,394.6 547.8,390.4 544.5,387.4C541.1,384.4 536.3,382.9 530,382.9C522.7,382.9 517.8,385 515.2,389.4C512.7,393.7 510.1,401.6 507.3,413.2L454.5,631.3C452,642.9 450.7,650.1 450.7,653C450.7,664.1 457.1,669.6 470,669.6Z" style="fill:rgb(127,90,240);"/>
    <path d="M575.2,632.2L759.5,552C761.2,551.3 762.5,549.2 762.5,547.4L762.5,508.6C762.5,506.8 761.2,504.7 759.5,504L575.2,424.5C573.5,423.8 572.2,424.7 572.2,426.5L572.2,473C572.2,474.8 573.6,476.8 575.3,477.5L702.2,526.6C703.9,527.3 703.9,528.3 702.2,529L575.3,578.8C573.6,579.5 572.2,581.5 572.2,583.3L572.2,630.3C572.2,632 573.5,632.9 575.2,632.2Z" style="fill:rgb(127,90,240);"/>
    <path d="M240.5,552L424.8,631.9C426.5,632.6 427.8,631.7 427.8,629.9L427.8,582.9C427.8,581.1 426.4,579.1 424.7,578.4L298.2,528.6C296.5,527.9 296.5,526.9 298.2,526.2L424.7,477.5C426.4,476.8 427.8,474.9 427.8,473L427.8,425.6C427.8,423.8 426.5,422.9 424.8,423.6L240.5,503.5C238.8,504.2 237.5,506.3 237.5,508.1L237.5,547.3C237.5,549.2 238.8,551.2 240.5,552Z" style="fill:rgb(127,90,240);"/>
    <g transform="matrix(0.807666,0,0,0.807666,761.684,30.0921)">
        <g id="Layer1">
            <circle cx="132.803" cy="180.354" r="23.896" style="fill:rgb(44,182,125);"/>
        </g>
    </g>
    <g transform="matrix(0.807666,0,0,0.807666,703.684,30.0921)">
        <g id="Layer11" serifId="Layer1">
            <circle cx="132.803" cy="180.354" r="23.896" style="fill:rgb(127,90,240);"/>
        </g>
    </g>
    <g transform="matrix(0.807666,0,0,0.807666,641.684,30.0921)">
        <g id="Layer12" serifId="Layer1">
            <circle cx="132.803" cy="180.354" r="23.896" style="fill:white;"/>
        </g>
    </g>
</svg>
